<svg width="32" height="33" viewBox="0 0 32 33" fill="none" xmlns="http://www.w3.org/2000/svg">
<path d="M32 16.8887C32 8.05212 24.8366 0.888672 16 0.888672C7.16344 0.888672 0 8.05212 0 16.8887C0 25.7252 7.16344 32.8887 16 32.8887C24.8366 32.8887 32 25.7252 32 16.8887Z" fill="black"/>
<path d="M16 8.88867C11.584 8.88867 8 12.4727 8 16.8887C8 21.3047 11.584 24.8887 16 24.8887C20.4 24.8887 24 21.3047 24 16.8887C24 12.4727 20.4 8.88867 16 8.88867ZM21.28 12.5687C22.24 13.7367 22.8 15.2087 22.832 16.8247C22.608 16.7767 20.352 16.3287 18.08 16.6007C18.032 16.4887 17.984 16.3607 17.936 16.2487C17.792 15.9127 17.648 15.5767 17.488 15.2567C19.984 14.2487 21.136 12.7607 21.28 12.5687ZM16 10.0727C17.728 10.0727 19.328 10.7287 20.528 11.7847C20.4 11.9607 19.376 13.3367 16.944 14.2487C15.824 12.1847 14.576 10.5047 14.4 10.2487C14.912 10.1367 15.44 10.0727 16 10.0727ZM13.088 10.7127C13.264 10.9527 14.48 12.6487 15.616 14.6647C12.416 15.5127 9.6 15.4967 9.296 15.4967C9.76 13.3687 11.184 11.6087 13.088 10.7127ZM9.168 16.9047C9.168 16.8407 9.168 16.7607 9.168 16.6967C9.456 16.7127 12.784 16.7447 16.192 15.7207C16.384 16.1047 16.576 16.4887 16.752 16.8887C16.672 16.9207 16.576 16.9367 16.48 16.9687C12.96 18.1047 11.088 21.2087 10.928 21.4647C9.824 20.2487 9.168 18.6487 9.168 16.9047ZM16 23.7207C14.416 23.7207 12.96 23.1767 11.808 22.2807C11.936 22.0247 13.312 19.3527 17.168 18.0087C17.184 17.9927 17.2 17.9927 17.216 17.9927C18.176 20.4887 18.576 22.5687 18.672 23.1767C17.856 23.5287 16.944 23.7207 16 23.7207ZM19.808 22.5527C19.744 22.1367 19.376 20.1367 18.48 17.6887C20.624 17.3527 22.496 17.9127 22.736 17.9767C22.432 19.8807 21.344 21.5287 19.808 22.5527Z" fill="white"/>
</svg>
