<svg width="32" height="33" viewBox="0 0 32 33" fill="none" xmlns="http://www.w3.org/2000/svg">
<path d="M32 16.8887C32 8.05212 24.8366 0.888672 16 0.888672C7.16344 0.888672 0 8.05212 0 16.8887C0 25.7252 7.16344 32.8887 16 32.8887C24.8366 32.8887 32 25.7252 32 16.8887Z" fill="black"/>
<path fill-rule="evenodd" clip-rule="evenodd" d="M15.9755 9.08008C11.5719 9.08008 8 12.6519 8 17.0556C8 20.5786 10.2997 23.5633 13.4312 24.6397C13.8226 24.6886 13.9694 24.444 13.9694 24.2483C13.9694 24.0526 13.9694 23.5633 13.9694 22.8782C11.7676 23.3675 11.2783 21.8018 11.2783 21.8018C10.9358 20.8721 10.3976 20.6275 10.3976 20.6275C9.66361 20.1382 10.4465 20.1382 10.4465 20.1382C11.2294 20.1871 11.6697 20.97 11.6697 20.97C12.4037 22.1932 13.5291 21.8507 13.9694 21.655C14.0183 21.1168 14.263 20.7743 14.4587 20.5786C12.6972 20.3828 10.8379 19.6978 10.8379 16.6152C10.8379 15.7345 11.1315 15.0495 11.6697 14.4623C11.6208 14.3156 11.3272 13.4837 11.7676 12.4073C11.7676 12.4073 12.4526 12.2116 13.9694 13.2391C14.6055 13.0434 15.2905 12.9945 15.9755 12.9945C16.6606 12.9945 17.3456 13.0923 17.9817 13.2391C19.4985 12.2116 20.1835 12.4073 20.1835 12.4073C20.6239 13.4837 20.3303 14.3156 20.2813 14.5113C20.7706 15.0495 21.1131 15.7834 21.1131 16.6642C21.1131 19.7467 19.2538 20.3828 17.4924 20.5786C17.7859 20.8232 18.0306 21.3125 18.0306 22.0464C18.0306 23.1229 18.0306 23.9547 18.0306 24.2483C18.0306 24.444 18.1774 24.6886 18.5688 24.6397C21.7492 23.5633 24 20.5786 24 17.0556C23.9511 12.6519 20.3792 9.08008 15.9755 9.08008Z" fill="white"/>
</svg>
