<svg width="32" height="33" viewBox="0 0 32 33" fill="none" xmlns="http://www.w3.org/2000/svg">
<rect y="0.888672" width="32" height="32" rx="16" fill="black"/>
<path d="M16 10.3345C18.1205 10.3345 18.4096 10.3345 19.2771 10.3345C20.0482 10.3345 20.4337 10.5272 20.7229 10.6236C21.1084 10.8164 21.3976 10.9128 21.6867 11.2019C21.9759 11.4911 22.1687 11.7802 22.2651 12.1658C22.3614 12.4549 22.4578 12.8405 22.5542 13.6116C22.5542 14.479 22.5542 14.6718 22.5542 16.8887C22.5542 19.1055 22.5542 19.2983 22.5542 20.1658C22.5542 20.9369 22.3614 21.3224 22.2651 21.6116C22.0723 21.9971 21.9759 22.2863 21.6867 22.5754C21.3976 22.8646 21.1084 23.0573 20.7229 23.1537C20.4337 23.2501 20.0482 23.3465 19.2771 23.4429C18.4096 23.4429 18.2169 23.4429 16 23.4429C13.7831 23.4429 13.5904 23.4429 12.7229 23.4429C11.9518 23.4429 11.5663 23.2501 11.2771 23.1537C10.8916 22.961 10.6024 22.8646 10.3133 22.5754C10.0241 22.2863 9.83133 21.9971 9.73494 21.6116C9.63855 21.3224 9.54217 20.9369 9.44578 20.1658C9.44578 19.2983 9.44578 19.1055 9.44578 16.8887C9.44578 14.6718 9.44578 14.479 9.44578 13.6116C9.44578 12.8405 9.63855 12.4549 9.73494 12.1658C9.92771 11.7802 10.0241 11.4911 10.3133 11.2019C10.6024 10.9128 10.8916 10.72 11.2771 10.6236C11.5663 10.5272 11.9518 10.4308 12.7229 10.3345C13.5904 10.3345 13.8795 10.3345 16 10.3345ZM16 8.88867C13.7831 8.88867 13.5904 8.88867 12.7229 8.88867C11.8554 8.88867 11.2771 9.08144 10.7952 9.27421C10.3133 9.46699 9.83133 9.75614 9.3494 10.2381C8.86747 10.72 8.6747 11.1055 8.38554 11.6839C8.19277 12.1658 8.09639 12.7441 8 13.6116C8 14.479 8 14.7682 8 16.8887C8 19.1055 8 19.2983 8 20.1658C8 21.0333 8.19277 21.6116 8.38554 22.0935C8.57831 22.5754 8.86747 23.0573 9.3494 23.5393C9.83133 24.0212 10.2169 24.214 10.7952 24.5031C11.2771 24.6959 11.8554 24.7923 12.7229 24.8887C13.5904 24.8887 13.8795 24.8887 16 24.8887C18.1205 24.8887 18.4096 24.8887 19.2771 24.8887C20.1446 24.8887 20.7229 24.6959 21.2048 24.5031C21.6867 24.3104 22.1687 24.0212 22.6506 23.5393C23.1325 23.0573 23.3253 22.6718 23.6145 22.0935C23.8072 21.6116 23.9036 21.0333 24 20.1658C24 19.2983 24 19.0092 24 16.8887C24 14.7682 24 14.479 24 13.6116C24 12.7441 23.8072 12.1658 23.6145 11.6839C23.4217 11.2019 23.1325 10.72 22.6506 10.2381C22.1687 9.75614 21.7831 9.56337 21.2048 9.27421C20.7229 9.08144 20.1446 8.98506 19.2771 8.88867C18.4096 8.88867 18.2169 8.88867 16 8.88867Z" fill="white"/>
<path d="M16 12.7441C13.6867 12.7441 11.8554 14.5754 11.8554 16.8887C11.8554 19.2019 13.6867 21.0333 16 21.0333C18.3133 21.0333 20.1446 19.2019 20.1446 16.8887C20.1446 14.5754 18.3133 12.7441 16 12.7441ZM16 19.5875C14.5542 19.5875 13.3012 18.4308 13.3012 16.8887C13.3012 15.4429 14.4578 14.1899 16 14.1899C17.4458 14.1899 18.6988 15.3465 18.6988 16.8887C18.6988 18.3345 17.4458 19.5875 16 19.5875Z" fill="white"/>
<path d="M20.241 13.6116C20.7733 13.6116 21.2048 13.18 21.2048 12.6477C21.2048 12.1154 20.7733 11.6839 20.241 11.6839C19.7086 11.6839 19.2771 12.1154 19.2771 12.6477C19.2771 13.18 19.7086 13.6116 20.241 13.6116Z" fill="white"/>
</svg>
