<svg width="32" height="33" viewBox="0 0 32 33" fill="none" xmlns="http://www.w3.org/2000/svg">
<rect y="0.888672" width="32" height="32" rx="16" fill="black"/>
<path d="M22.4 17.4838V21.8964H19.8171V17.7529C19.8171 16.7304 19.4404 16.0309 18.5256 16.0309C17.826 16.0309 17.3955 16.5152 17.2341 16.9457C17.1803 17.1071 17.1265 17.3224 17.1265 17.5914V21.8964H14.5435C14.5435 21.8964 14.5973 14.9008 14.5435 14.2013H17.1265V15.2775C17.4494 14.7394 18.0951 13.986 19.4404 13.986C21.1085 13.986 22.4 15.1161 22.4 17.4838ZM11.8529 10.4883C10.992 10.4883 10.4 11.0802 10.4 11.8336C10.4 12.5869 10.9381 13.1789 11.7991 13.1789C12.7139 13.1789 13.252 12.5869 13.252 11.8336C13.3059 11.0264 12.7677 10.4883 11.8529 10.4883ZM10.5615 21.8964H13.1444V14.2013H10.5615V21.8964Z" fill="white"/>
</svg>
