<svg width="216" height="204" viewBox="0 0 216 204" fill="none" xmlns="http://www.w3.org/2000/svg">
<path d="M180.21 55.5993C162.415 66.321 128.153 114.002 142.278 136.889C150.159 149.658 166.113 140.936 169.609 129.334C174.548 112.94 158.747 80.6965 141.76 75.4472C120.373 68.8381 99.5843 97.038 95.7298 114.878C94.0791 122.518 102.326 128.944 101.541 119.411C100.23 103.487 89.543 72.2151 68.2062 77.6065C48.4936 82.5875 40.1669 102.334 34.7397 119.536" stroke="black" stroke-width="1.2" stroke-linecap="round"/>
<path d="M180.278 116.637C182.167 125.906 183.104 131.607 178.552 139.77" stroke="black" stroke-width="1.2" stroke-linecap="round"/>
<path d="M40.3367 118.299C39.5373 118.635 34.1673 121.127 33.8615 120.121C33.2701 118.176 32.7629 116.325 31.932 114.462" stroke="black" stroke-width="1.2" stroke-linecap="round"/>
</svg>
